<?xml version="1.0" encoding="utf-8"?>
<svg viewBox="0 0 500 500" xmlns="http://www.w3.org/2000/svg" xmlns:bx="https://boxy-svg.com">
  <defs>
    <style bx:fonts="Comfortaa">@import url(https://fonts.googleapis.com/css2?family=Comfortaa%3Aital%2Cwght%400%2C300%3B0%2C400%3B0%2C500%3B0%2C600%3B0%2C700&amp;display=swap);</style>
  </defs>
  <g id="hair" transform="matrix(1, 0, 0, 1, 331.372375, 125.865425)"/>
  <g id="skin" transform="matrix(1, 0, 0, 1, 331.372375, 125.865425)"/>
  <g id="skin-shadow" transform="matrix(1, 0, 0, 1, 331.372375, 125.865425)"/>
  <g id="color" transform="matrix(3.513612, 0, 0, 3.513612, 254.363419, -31.987774)" style=""/>
  <g id="g-1" transform="matrix(1, 0, 0, 1, 334.539215, 120.371521)"/>
  <g id="g-2" transform="matrix(1, 0, 0, 1, 334.539215, 120.371521)"/>
  <g id="g-3" transform="matrix(1, 0, 0, 1, 334.539215, 120.371521)"/>
  <g id="g-5" style="" transform="matrix(5.728369, -1.329773, 1.329773, 5.728369, 51.693714, 15.371559)"/>
  <g id="g-6" style="" transform="matrix(5.728369, -1.329773, 1.329773, 5.728369, 51.693714, 15.371559)"/>
  <g id="g-7" style="" transform="matrix(5.728369, -1.329773, 1.329773, 5.728369, 51.693714, 15.371559)"/>
  <g id="g-4" transform="matrix(6.117957, -2.006, 1.918688, 5.851668, 2.849219, 47.908287)" style="">
    <ellipse cx="19.5477" cy="35.9583" rx="14.4692" ry="24.6554" fill="#FFFFFF"/>
    <ellipse cx="52.4523" cy="35.9583" rx="14.4692" ry="24.6554" fill="#FFFFFF"/>
    <ellipse cx="52.4523" cy="35.9583" rx="14.4692" ry="24.6554" fill="#FFFFFF"/>
    <circle cx="46.0104" cy="37.8173" r="8.0273" fill="#A57939"/>
    <ellipse cx="19.5477" cy="35.9583" rx="14.4692" ry="24.6554" fill="#FFFFFF"/>
    <circle cx="13.1058" cy="37.8173" r="8.0273" fill="#A57939"/>
  </g>
  <g id="g-8" transform="matrix(5.091178, 0, 0, 5.091178, 70.726372, -26.480495)" style=""/>
  <g id="g-9" transform="matrix(5.091178, 0, 0, 5.091178, 70.726372, -26.480495)" style=""/>
  <g id="g-10" transform="matrix(5.091178, 0, 0, 5.091178, 70.726372, -26.480495)" style=""/>
  <g id="line" transform="matrix(6.142866, -2.014167, 1.888453, 5.759458, 3.039698, 49.00013)" style="">
    <ellipse cx="19.5477" cy="35.9583" rx="14.4692" ry="24.6554" fill="none" stroke="#000000" stroke-linecap="round" stroke-linejoin="round" stroke-miterlimit="10" stroke-width="2"/>
    <ellipse cx="52.4523" cy="35.9583" rx="14.4692" ry="24.6554" fill="none" stroke="#000000" stroke-linecap="round" stroke-linejoin="round" stroke-miterlimit="10" stroke-width="2"/>
    <circle cx="13.1058" cy="37.8173" r="3.6229"/>
    <circle cx="46.0104" cy="37.8173" r="3.6229"/>
    <circle cx="13.1058" cy="37.8173" r="3.6229" fill="none" stroke="#000000" stroke-linecap="round" stroke-linejoin="round" stroke-miterlimit="10" stroke-width="2"/>
    <circle cx="13.1058" cy="37.8173" r="8.0273" fill="none" stroke="#000000" stroke-linecap="round" stroke-linejoin="round" stroke-miterlimit="10" stroke-width="2"/>
    <circle cx="46.0104" cy="37.8173" r="3.6229" fill="none" stroke="#000000" stroke-linecap="round" stroke-linejoin="round" stroke-miterlimit="10" stroke-width="2"/>
    <circle cx="46.0104" cy="37.8173" r="8.0273" fill="none" stroke="#000000" stroke-linecap="round" stroke-linejoin="round" stroke-miterlimit="10" stroke-width="2"/>
  </g>
  <text style="fill: rgb(255, 255, 255); font-family: Comfortaa; font-size: 190px; font-weight: 600; paint-order: stroke; stroke: rgb(0, 0, 0); stroke-width: 28.0045px; white-space: pre;" transform="matrix(1.236891, 0, 0, 1.182406, 9.345558, -88.374779)" x="-4.021" y="481.541">0xa1</text>
  <text style="white-space: pre; fill: rgb(51, 51, 51); font-family: Arial, sans-serif; font-size: 19.7px;" x="642.84" y="402.111" transform="matrix(0.999423, -0.03396, 0.03396, 0.999423, -5.607245, 10.946117)"> </text>
  <text style="white-space: pre; fill: rgb(51, 51, 51); font-family: Arial, sans-serif; font-size: 23.5px;" x="405.368" y="396.124"> </text>
</svg>